<svg xmlns="http://www.w3.org/2000/svg" viewBox="0 0 80 129"><defs><radialGradient id="a" cx="59.22" cy="27.28" r="44.26" gradientTransform="matrix(1 0 0 -1 0 130)" gradientUnits="userSpaceOnUse"><stop offset="0" stop-color="#bf360c" stop-opacity=".2"/><stop offset="1" stop-color="#bf360c" stop-opacity=".02"/></radialGradient><radialGradient id="b" cx="59.09" cy="27" r="44.62" gradientTransform="matrix(1 0 0 -1 0 130)" gradientUnits="userSpaceOnUse"><stop offset="0" stop-color="#263238" stop-opacity=".2"/><stop offset="1" stop-color="#263238" stop-opacity=".02"/></radialGradient><radialGradient id="c" cx="-1.06" cy="128.65" r="134.35" gradientTransform="matrix(1 0 0 -1 0 130)" gradientUnits="userSpaceOnUse"><stop offset="0" stop-color="#fff" stop-opacity=".1"/><stop offset="1" stop-color="#fff" stop-opacity="0"/></radialGradient></defs><path fill="#ffc107" d="M59.09 102.62L48.46 84.23l-25.52 44.12h21.85l14.59-25.23-.29-.5z"/><path fill="#0f9d58" d="M36.96 64.35l11.5 19.88-25.52 44.12h-23l37.02-64z"/><path style="isolation:isolate" fill="#bf360c" opacity=".2" d="M44.79 127.35H23.52l-.58 1h21.85l14.59-25.23-.29-.5-14.3 24.73z"/><path style="isolation:isolate" fill="#263238" opacity=".2" d="M.52 127.35l-.58 1h23l.58-1h-23z"/><path style="isolation:isolate" fill="#fff" opacity=".2" d="M-.06 128.35h.58l36.73-63.5-.29-.5-37.02 64z"/><path fill="url(#a)" d="M59.38 103.12L48.46 84.23l-2.68 4.63 13.6 14.26z"/><path fill="url(#b)" d="M45.78 88.86l2.68-4.63-11.5-19.88-5.49 9.5 14.31 15.01z"/><path fill="#4285f4" d="M22.94.35h-23l59.44 102.77 11.49-19.87.01-.02L22.94.35z"/><path d="M78.33 70.35a12 12 0 0 0 0-12L44.79.35H22.94l47.94 82.88z" fill="#db4437"/><path style="isolation:isolate" fill="#1a237e" opacity=".2" d="M70.88 83.23l-.29-.49-11.21 19.38L.52.35h-.58l59.44 102.77 11.49-19.87.01-.02z"/><path d="M44.79 1.35l33.54 58a12 12 0 0 1 1.58 5.5 12 12 0 0 0-1.58-6.5L44.79.35H-.06l.58 1z" style="isolation:isolate" fill="#fff" opacity=".2"/><path d="M70.88 83.23l7.45-12.88a12 12 0 0 0 1.58-6.5 12 12 0 0 1-1.58 5.5l-7.74 13.39z" style="isolation:isolate" fill="#3e2723" opacity=".2"/><path d="M78.33 58.35L44.79.35H-.06l37 64-37 64h44.85l33.54-58a12 12 0 0 0 0-12z" fill="url(#c)"/></svg>
