<svg version="1" xmlns="http://www.w3.org/2000/svg" width="1376" height="1376" viewBox="0 0 1032.000000 1032.000000"><path d="M196 3.5c0 .3 66.4 115.2 147.5 255.5S491 514.5 491 515s-4 7.8-8.9 16.2c-4.8 8.4-70.4 121.7-145.6 251.7-75.2 130-137.5 237.8-138.6 239.5-1 1.7-1.9 3.4-1.9 3.9 0 .4 80.6.6 179.2.5l179.2-.3 58.5-101.1c32.2-55.7 63.8-110.1 70.2-121 65.4-112.1 143-247.5 145.6-253.9 5.1-12.9 6.6-22.4 6-39.4-.5-15.8-2.9-26.6-8.3-37.4-1.4-2.9-63.2-109.9-137.2-238L554.7 3H375.3c-98.6 0-179.3.2-179.3.5z"/></svg>